<svg width="241" height="101" viewBox="0 0 241 101" fill="none" xmlns="http://www.w3.org/2000/svg">
<path fill-rule="evenodd" clip-rule="evenodd" d="M30.1005 0H73.1116C84.541 0 93.8913 9.35032 93.8913 20.7797V63.7908C93.8913 75.2202 84.541 84.5705 73.1116 84.5705H30.1005C18.6711 84.5705 9.3208 75.2188 9.3208 63.7908V20.7797C9.3208 9.35032 18.6725 0 30.1005 0Z" fill="#7FC93F"/>
<path fill-rule="evenodd" clip-rule="evenodd" d="M82.2021 71.0049C70.9387 71.2444 64.4553 78.019 57.7188 83.9215C60.4509 89.7722 71.004 95.7196 76.1922 98C75.8534 88.3925 75.0982 79.5089 82.2021 71.0036V71.0049Z" fill="#7FC93F"/>
<g filter="url(#filter0_d_1_134)">
<path d="M28.1543 56.1533C33.0395 56.1533 36.9999 60.1139 37 64.999V83.3086C36.9998 88.1937 33.0394 92.1533 28.1543 92.1533H16.2549C14.9056 94.553 10.6612 96.9364 8.53418 97.8711C8.60509 95.8598 8.71743 93.9235 8.45508 92.0439C4.2306 91.3769 1.00015 87.7206 1 83.3086V64.999C1.00012 60.1139 4.96054 56.1533 9.8457 56.1533H28.1543Z" fill="#0A3D48"/>
</g>
<path d="M167.449 42.2178C173.922 42.2178 177.991 46.8419 177.991 54.0078V56.1807H161.901C162.456 58.8163 164.444 60.5273 167.126 60.5273C169.25 60.5272 170.723 59.511 171.851 58.0889L172.073 57.7998L176.927 61.3594C174.708 64.1794 171.055 65.7979 167.449 65.7979C160.513 65.7978 154.966 61.1739 154.966 54.0078C154.966 46.8415 160.514 42.2179 167.449 42.2178ZM211.972 42.2178C214.608 42.2178 217.798 43.0043 219.971 45.2236L215.394 50.0312C214.701 49.0607 213.406 48.3214 211.973 48.3213C208.506 48.3213 206.425 50.6331 206.425 54.0078C206.425 57.3827 208.506 59.6953 211.973 59.6953C213.499 59.6952 214.608 58.9093 215.394 57.9844L219.971 62.793C217.798 65.0122 214.608 65.7979 211.972 65.7979C205.037 65.7977 199.489 61.1739 199.489 54.0078C199.489 46.8416 205.037 42.2179 211.972 42.2178ZM231.114 42.2178C233.981 42.2178 237.151 42.9125 239.238 44.9736L239.436 45.1777L235.182 49.3848C234.165 48.1363 232.824 47.4893 231.16 47.4893C230.004 47.4893 228.617 47.9977 228.617 49.3379C228.617 52.6666 240.314 49.8471 240.314 58.4004C240.314 64.1335 234.766 65.7978 229.958 65.7979C226.814 65.7979 223.346 65.0116 221.127 62.7461L225.335 58.0771C226.629 59.6487 228.155 60.5273 230.235 60.5273C231.807 60.5273 233.379 60.1108 233.38 58.9092C233.38 55.3028 221.682 58.3539 221.682 49.8008C221.682 44.53 226.398 42.2178 231.114 42.2178ZM131.339 53.8691H131.431L139.014 32.5088H149.88V65.2432H142.667V40.1377H142.574L133.974 65.2432H128.472L120.197 40.1377H120.104V65.2432H112.891V32.5088H123.803L131.339 53.8691ZM195.698 42.2178C196.484 42.2178 197.364 42.2644 198.01 42.4492V48.7832C197.039 48.506 196.068 48.3213 195.052 48.3213C189.781 48.3213 189.133 51.3726 189.133 55.8574V65.2432H182.198V42.7734H189.134V46.3789H189.225C190.704 43.6514 192.647 42.2179 195.698 42.2178ZM166.802 47.2119C163.75 47.2121 162.086 49.2928 161.901 51.4658H171.055C171.102 49.1541 169.298 47.2119 166.802 47.2119Z" fill="#213D45"/>
<defs>
<filter id="filter0_d_1_134" x="0" y="47.1533" width="48" height="53.7178" filterUnits="userSpaceOnUse" color-interpolation-filters="sRGB">
<feFlood flood-opacity="0" result="BackgroundImageFix"/>
<feColorMatrix in="SourceAlpha" type="matrix" values="0 0 0 0 0 0 0 0 0 0 0 0 0 0 0 0 0 0 127 0" result="hardAlpha"/>
<feOffset dx="5" dy="-3"/>
<feGaussianBlur stdDeviation="3"/>
<feComposite in2="hardAlpha" operator="out"/>
<feColorMatrix type="matrix" values="0 0 0 0 0 0 0 0 0 0 0 0 0 0 0 0 0 0 0.44 0"/>
<feBlend mode="normal" in2="BackgroundImageFix" result="effect1_dropShadow_1_134"/>
<feBlend mode="normal" in="SourceGraphic" in2="effect1_dropShadow_1_134" result="shape"/>
</filter>
</defs>
</svg>
